<svg width="98" height="30" viewBox="0 0 98 30" fill="none" xmlns="http://www.w3.org/2000/svg">
<path d="M42.9649 21.2082L37.2711 7.03188C37.1936 6.83821 37.1162 6.64455 37.0774 6.45088C37.0387 6.25721 37 6.02481 37 5.83115C37 5.21142 37.1937 4.74662 37.6197 4.32056C38.0458 3.93323 38.5493 3.73956 39.2078 3.73956C39.6726 3.73956 40.0599 3.89449 40.331 4.16562C40.6409 4.43675 40.912 4.90155 41.1444 5.56001L45.0177 15.9792L48.7361 5.71494C48.9685 4.97901 49.2784 4.47548 49.5883 4.16562C49.8981 3.89449 50.3242 3.73956 50.8277 3.73956C51.4862 3.73956 51.9897 3.89449 52.3383 4.24309C52.6869 4.59169 52.8806 5.05649 52.8806 5.67622C52.8806 5.90862 52.8418 6.14101 52.8031 6.41214C52.7644 6.64454 52.6869 6.91567 52.6094 7.14807L47.1093 21.0532C46.8769 21.673 46.5671 22.1378 46.2572 22.4089C45.9086 22.68 45.4825 22.835 44.979 22.835C44.4755 22.835 44.0882 22.7188 43.7783 22.4476C43.5072 22.1765 43.236 21.7892 42.9649 21.2082Z" fill="#655CAC"/>
<path d="M57.9548 19.9681C57.9548 20.9364 57.7999 21.6336 57.49 22.0984C57.1802 22.5632 56.6766 22.7956 56.0569 22.7956C55.3984 22.7956 54.8949 22.5632 54.585 22.0984C54.2752 21.6336 54.1202 20.9364 54.1202 19.9681V12.144C54.1202 11.1757 54.2752 10.4785 54.585 10.0137C54.8949 9.54886 55.3984 9.31647 56.0569 9.31647C56.7154 9.31647 57.1802 9.54886 57.49 10.0137C57.7999 10.4785 57.9548 11.1757 57.9548 12.144V19.9681Z" fill="#655CAC"/>
<path d="M63.8424 9.43274C64.3072 9.04541 64.8108 8.73555 65.353 8.54188C65.8953 8.34822 66.4763 8.23201 67.096 8.23201C68.8777 8.23201 70.3883 8.92921 71.6278 10.3623C72.8672 11.7567 73.4482 13.5385 73.4482 15.6688C73.4482 17.6829 72.8285 19.3872 71.5503 20.7815C70.3109 22.1759 68.8003 22.9119 67.096 22.9119C66.3988 22.9119 65.7791 22.7957 65.1981 22.5633C64.6171 22.3309 64.1523 21.9823 63.7262 21.5175C63.4551 21.9435 63.184 22.2921 62.8354 22.5245C62.5255 22.7569 62.1382 22.8731 61.7508 22.8731C61.0537 22.8731 60.5501 22.6407 60.2015 22.1372C59.8529 21.6337 59.698 20.8977 59.698 19.8519V6.76016C59.698 5.7531 59.8529 4.97844 60.2015 4.47491C60.5501 3.97138 61.0537 3.73898 61.7508 3.73898C62.448 3.73898 62.9903 3.97138 63.3002 4.47491C63.6488 4.97844 63.8037 5.71437 63.8037 6.76016V9.43274H63.8424ZM63.5326 15.5913C63.5326 16.7146 63.8037 17.6442 64.346 18.3026C64.8882 18.9998 65.6242 19.3484 66.4763 19.3484C67.3284 19.3484 68.0643 18.9998 68.6066 18.3026C69.1489 17.6054 69.4587 16.7146 69.4587 15.5913C69.4587 14.468 69.1876 13.5385 68.6453 12.8413C68.1031 12.1441 67.3671 11.7955 66.515 11.7955C65.6242 11.7955 64.927 12.1441 64.3847 12.8413C63.8037 13.5385 63.5326 14.468 63.5326 15.5913Z" fill="#655CAC"/>
<path d="M78.0962 16.7531C78.1737 17.5278 78.7547 18.1475 79.297 18.5736C79.8392 18.9996 80.5752 19.232 81.466 19.232C82.2407 19.232 83.0928 18.9996 84.0612 18.5736C85.0295 18.1088 85.6105 17.9151 85.8041 17.9151C86.3077 17.9151 86.695 18.07 87.0049 18.3799C87.3147 18.6898 87.4697 19.0771 87.4697 19.5419C87.4697 20.4327 86.8499 21.2074 85.6105 21.9433C84.371 22.6405 82.8991 23.0279 81.2336 23.0279C79.1808 23.0279 77.4765 22.3307 76.1209 20.9363C74.7652 19.5419 74.068 17.7989 74.068 15.7073C74.068 13.6157 74.7265 11.834 76.0434 10.4396C77.3603 9.04522 79.0258 8.34802 81.0012 8.34802C82.8991 8.34802 84.5259 9.00649 85.8041 10.3234C87.0823 11.6403 87.7408 13.2671 87.7408 15.165C87.7408 15.7848 87.5858 16.2108 87.3147 16.482C87.0436 16.7144 86.5013 16.8693 85.6879 16.8693H78.0962V16.7531ZM77.9413 14.3129H84.0224C83.9837 13.5383 83.6738 12.7636 83.0928 12.2213C82.5118 11.7178 81.8534 11.4467 81.0787 11.4467C80.304 11.4467 79.5681 11.6791 79.0258 12.1826C78.4449 12.6861 78.0962 13.4995 77.9413 14.3129Z" fill="#655CAC"/>
<path d="M88.9025 19.7743V11.4467C88.9025 10.4397 89.0574 9.66499 89.406 9.2002C89.7546 8.69667 90.2581 8.46427 90.9553 8.46427C91.3814 8.46427 91.73 8.58048 92.0786 8.77414C92.3884 9.00654 92.6983 9.3164 92.9307 9.78119C93.3568 9.3164 93.8216 8.9678 94.2864 8.73541C94.7511 8.50301 95.2547 8.38681 95.7195 8.38681C96.3005 8.38681 96.7653 8.58047 97.1913 9.00653C97.6174 9.39386 97.8111 9.8974 97.8111 10.4397C97.8111 11.2531 97.0364 11.9502 95.5258 12.5312C94.9836 12.7249 94.5575 12.8798 94.2864 13.0348C93.7828 13.2672 93.4342 13.5383 93.2406 13.8482C93.0856 14.158 92.9694 14.7003 92.9694 15.475V19.7743C92.9694 20.7814 92.8145 21.5561 92.4659 22.0596C92.1173 22.5631 91.6138 22.7955 90.9166 22.7955C90.2194 22.7955 89.7158 22.5631 89.3672 22.0596C89.0961 21.5561 88.9025 20.7814 88.9025 19.7743Z" fill="#655CAC"/>
<path d="M53.9656 5.86939C53.9656 5.28837 54.198 4.78481 54.6241 4.35873C55.0501 3.93265 55.5537 3.73898 56.1735 3.73898C56.7545 3.73898 57.258 3.93265 57.6841 4.35873C58.1102 4.78481 58.3039 5.28837 58.3039 5.86939C58.3039 6.4504 58.1102 6.99269 57.6841 7.38003C57.258 7.80611 56.7545 7.99979 56.1735 7.99979C55.5537 7.99979 55.0501 7.80611 54.6241 7.38003C54.1593 6.99269 53.9656 6.48914 53.9656 5.86939Z" fill="#655CAC"/>
<path d="M24.8454 2.88685C24.1095 2.22839 21.1658 0.0593341 14.5424 0.020601C14.5424 0.020601 6.7571 -0.444201 2.96125 3.04178C0.830933 5.1721 0.0950014 8.23202 0.0175352 12.0666C-0.059931 15.9012 -0.17612 23.0668 6.7571 25.0422V28.0246C6.7571 28.0246 6.71837 29.2254 7.49303 29.4578C8.46136 29.7676 9.00362 28.838 9.93321 27.8697C10.4367 27.3274 11.1339 26.5528 11.6375 25.933C16.3629 26.3204 20.0038 25.4295 20.4299 25.2746C21.3982 24.9647 26.7821 24.2675 27.673 17.1019C28.6026 9.66514 27.2856 4.97844 24.8454 2.88685ZM25.6588 16.5209C24.9229 22.5245 20.5461 22.9119 19.7327 23.1443C19.3841 23.2605 16.208 24.0351 12.1797 23.8027C12.1797 23.8027 9.19728 27.4049 8.22896 28.3732C8.07402 28.5282 7.91909 28.5669 7.80289 28.5669C7.64796 28.5282 7.60922 28.3345 7.60922 28.0634C7.60922 27.676 7.64796 23.1055 7.64796 23.1055C1.79926 21.4787 2.14786 15.3589 2.18659 12.1441C2.26406 8.92921 2.84506 6.33409 4.62678 4.55237C7.84163 1.64738 14.465 2.07345 14.465 2.07345C20.0426 2.11218 22.7151 3.7777 23.3349 4.3587C25.349 6.14042 26.3948 10.3623 25.6588 16.5209Z" fill="#665CA7"/>
<path fill-rule="evenodd" clip-rule="evenodd" d="M14.2866 9.54869C14.3081 9.15064 14.6482 8.8454 15.0463 8.86692C15.8838 8.91219 16.6224 9.1687 17.159 9.72623C17.6916 10.2795 17.9304 11.0311 17.9747 11.8738C17.9957 12.2719 17.6899 12.6116 17.2919 12.6325C16.8938 12.6535 16.5541 12.3477 16.5331 11.9497C16.5 11.3204 16.3321 10.9487 16.119 10.7273C15.91 10.5101 15.564 10.3406 14.9684 10.3084C14.5703 10.2869 14.2651 9.94673 14.2866 9.54869Z" fill="#665CA7"/>
<path fill-rule="evenodd" clip-rule="evenodd" d="M13.784 7.51676C13.8154 7.11937 14.163 6.82265 14.5604 6.85402C16.1734 6.98136 17.521 7.54348 18.5217 8.63522L18.5227 8.63627C19.4718 9.67579 19.9556 11.0239 19.9119 12.5522C19.9005 12.9507 19.5683 13.2645 19.1698 13.2531C18.7714 13.2417 18.4576 12.9094 18.4689 12.511C18.5027 11.3282 18.1345 10.3524 17.4571 9.61016C16.7536 8.84296 15.7773 8.39815 14.4468 8.29311C14.0494 8.26173 13.7526 7.91415 13.784 7.51676Z" fill="#665CA7"/>
<path fill-rule="evenodd" clip-rule="evenodd" d="M13.0461 5.67558C13.0461 5.27695 13.3693 4.9538 13.7679 4.9538C16.037 4.9538 17.9637 5.71718 19.5002 7.21099C21.0574 8.72493 21.8493 10.7831 21.8493 13.3063C21.8493 13.7049 21.5261 14.0281 21.1275 14.0281C20.7289 14.0281 20.4057 13.7049 20.4057 13.3063C20.4057 11.1039 19.7257 9.4435 18.494 8.24602C17.2416 7.02841 15.6821 6.39736 13.7679 6.39736C13.3693 6.39736 13.0461 6.07421 13.0461 5.67558Z" fill="#665CA7"/>
<path d="M15.0847 16.9082C15.0847 16.9082 15.627 16.9469 15.8981 16.5983L16.4404 15.9012C16.7115 15.5526 17.3313 15.3202 17.9897 15.6687C18.3383 15.8624 18.958 16.2497 19.3454 16.5596C19.7714 16.8695 20.6236 17.5667 20.6236 17.5667C21.0496 17.9153 21.1271 18.4188 20.856 18.9611C20.5848 19.4646 20.1975 19.9294 19.694 20.3555C19.3066 20.7041 18.9193 20.859 18.532 20.9365H18.377C18.2221 20.9365 18.0284 20.8977 17.8735 20.859C17.2925 20.7041 16.3242 20.278 14.6587 19.3871C13.6129 18.8061 12.722 18.1864 11.9861 17.6054C11.5988 17.2955 11.1727 16.9469 10.7854 16.5209L10.6304 16.3659C10.2044 15.9399 9.85576 15.5526 9.54589 15.1652C8.9649 14.4293 8.34516 13.5384 7.76417 12.4926C6.87331 10.8658 6.44725 9.89752 6.29231 9.27779C6.25358 9.12286 6.21484 8.96793 6.21484 8.77426V8.61932C6.25358 8.23199 6.44724 7.84466 6.79584 7.45733C7.2219 6.99253 7.6867 6.6052 8.19023 6.29534C8.7325 6.0242 9.23603 6.10167 9.58463 6.52774C9.58463 6.52774 10.2818 7.37987 10.5917 7.80594C10.8628 8.19327 11.2501 8.813 11.4825 9.16159C11.8311 9.78132 11.5987 10.4398 11.2889 10.7109L10.5917 11.2532C10.2431 11.5243 10.2818 12.0666 10.2818 12.0666C10.2818 12.0666 11.2502 15.9012 15.0847 16.9082Z" fill="#665CA7"/>
</svg>
