<svg width="16" height="16" viewBox="0 0 16 16" fill="none" xmlns="http://www.w3.org/2000/svg">
<g clip-path="url(#clip0)">
<path d="M3.49754 6.83252L9.29629 12.6313L1.38254 15.4663C0.933788 15.6263 0.501288 15.1938 0.662538 14.7463L3.49754 6.83252Z" fill="#FFC107"/>
<path d="M4.92501 15.4924C3.86751 15.2699 2.91251 15.0024 2.01376 14.3737C1.17126 13.7849 0.306259 12.9012 -0.0274915 11.9099C-0.287491 11.1374 -1.44749 11.6849 -1.02374 12.3299C-0.333741 13.3799 0.371258 14.3012 1.44251 14.9937C2.41751 15.6249 3.67001 16.1099 4.84626 16.0799C5.17001 16.0712 5.26626 15.5649 4.92501 15.4924Z" fill="#FF8F00"/>
<path d="M6.38375 14.2137C5.32625 13.9912 4.37125 13.7237 3.4725 13.095C2.63 12.5062 1.765 11.6225 1.43125 10.6312C1.17125 9.85875 0.0112488 10.4062 0.434999 11.0512C1.125 12.1012 1.83 13.0225 2.90125 13.715C3.87625 14.3462 5.12875 14.8312 6.305 14.8012C6.63 14.7925 6.725 14.285 6.38375 14.2137Z" fill="#FF8F00"/>
<path d="M9.58879 13.3325C7.97004 13.0213 6.52129 12.6163 5.14504 11.6613C3.85004 10.7625 2.60379 9.45 2.03754 7.95625C1.75379 7.20875 0.64254 7.70375 1.04129 8.37625C1.96504 9.93375 3.04254 11.2725 4.57004 12.28C5.97379 13.2063 7.80129 13.9513 9.51004 13.92C9.83379 13.9138 9.93129 13.3988 9.58879 13.3325Z" fill="#FF8F00"/>
<g opacity="0.2">
<path opacity="0.2" d="M4.23871 6.96753C5.10621 6.96753 6.46996 7.93503 7.36871 8.83503C8.10496 9.57128 8.68496 10.3688 9.00121 11.08C9.30621 11.7675 9.26621 12.16 9.13996 12.2863C9.13371 12.2925 9.12371 12.3 9.11121 12.31C9.10496 12.315 9.09871 12.3188 9.09371 12.3238C9.08496 12.3275 9.07746 12.3313 9.06996 12.335C9.04621 12.3463 9.01996 12.3563 8.99121 12.3625C8.97871 12.365 8.96621 12.3688 8.95496 12.3738L1.30871 15.1125C1.28621 15.12 1.26371 15.125 1.24246 15.125C1.18371 15.125 1.12621 15.0938 1.08996 15.0425C1.06496 15.0075 1.04121 14.9488 1.06871 14.8725L3.83246 7.15878C3.85496 7.14003 3.87621 7.11753 3.89371 7.09253C3.90246 7.08003 3.91121 7.07003 3.91746 7.06378C3.97996 7.00003 4.08871 6.96753 4.23871 6.96753ZM4.23871 6.59253C3.99246 6.59253 3.79121 6.65878 3.65121 6.79878C3.62871 6.82128 3.60871 6.84628 3.58996 6.87253L3.54996 6.83253L0.714958 14.745C0.577458 15.1275 0.873708 15.5 1.24246 15.5C1.30496 15.5 1.36996 15.4888 1.43496 15.4663L9.07871 12.7275C9.13371 12.7138 9.18496 12.6963 9.23246 12.6725L9.34871 12.6313L9.33121 12.6138C9.35746 12.595 9.38246 12.575 9.40496 12.5525C10.015 11.9425 9.22246 10.1588 7.63371 8.57003C6.40871 7.34378 5.06746 6.59253 4.23871 6.59253Z" fill="url(#paint0_linear)"/>
</g>
<path d="M9.45781 12.6054C10.0797 11.9835 9.272 10.1675 7.65373 8.54931C6.03547 6.9311 4.21946 6.12345 3.59756 6.74537C2.97566 7.36729 3.78337 9.18328 5.40164 10.8015C7.0199 12.4197 8.83591 13.2273 9.45781 12.6054Z" fill="#795548"/>
<path opacity="0.2" d="M4.1963 6.91003C5.0813 6.91003 6.47255 7.89628 7.3888 8.81378C9.01505 10.44 9.5438 11.9888 9.19255 12.3388C9.1263 12.405 9.0138 12.4388 8.86005 12.4388C7.9738 12.4388 6.5838 11.4525 5.66755 10.535C4.0413 8.90878 3.51255 7.36003 3.8638 7.01003C3.93005 6.94378 4.0413 6.91003 4.1963 6.91003ZM4.1963 6.53503C3.94505 6.53503 3.7413 6.60253 3.5988 6.74503C2.97755 7.36628 3.78505 9.18253 5.40255 10.8013C6.65005 12.0488 8.0163 12.815 8.86005 12.815C9.1113 12.815 9.31505 12.7475 9.45755 12.605C10.0788 11.9838 9.2713 10.1675 7.6538 8.54878C6.4063 7.30128 5.0413 6.53503 4.1963 6.53503Z" fill="#424242"/>
<path d="M13 3.86504L12.4812 3.12504L13.6212 2.32629L13.9825 2.84129L13 3.86504Z" fill="#1E88E5"/>
<path d="M1.46875 2.09253L2.30875 1.93628L2.54875 3.23128L1.96375 3.34003L1.46875 2.09253Z" fill="#FF5722"/>
<path d="M7.64625 1.66375L6.85 1.8725L6.5275 0.645L7.08125 0.5L7.64625 1.66375Z" fill="#1E88E5"/>
<path d="M7.60372 11.9313C7.99122 10.935 8.67997 10.4075 9.79497 10.3938C10.93 10.38 12.7812 11.0625 12.87 12.4025C12.87 12.1975 12.87 11.9938 12.8712 11.7888C12.7837 12.2775 12.2775 12.4813 11.8187 12.3763C11.3312 12.265 11.0112 11.855 10.9487 11.3738C10.9487 11.5788 10.9487 11.7825 10.95 11.9875C11.0012 10.8763 12.195 10.5138 13.1337 10.5275C14.1137 10.5425 14.8137 11.2013 15.35 11.9588C15.2537 11.8225 15.45 11.475 15.35 11.3338C14.7862 10.5388 14.0575 9.88252 13.0287 9.90127C12.1925 9.91752 11.1 10.2363 10.9562 11.195C10.9075 11.5225 10.8962 12.0138 11.02 12.3225C11.2737 12.9588 12.5337 13.4275 12.8425 12.5713C13.2875 11.3375 12.045 10.3113 11.015 9.97252C10.245 9.72002 9.36247 9.66752 8.61372 10.025C8.05747 10.2913 7.81622 10.7563 7.60247 11.305C7.53247 11.4888 7.67247 11.7525 7.60372 11.9313Z" fill="#FF5722"/>
<path d="M8.89503 8.15251C9.33253 8.38501 9.83003 8.70751 10.3263 8.44251C10.6125 8.28876 10.76 7.99626 10.8813 7.70876C11.1588 7.05251 11.2875 6.67751 12.0488 7.02751C12.4963 7.23251 13.5325 7.91126 13.7213 7.04251C13.8188 6.59126 13.6588 6.11126 13.635 5.66751C13.635 5.87251 13.635 6.07626 13.6338 6.28126C13.7475 5.49626 14.89 5.76876 15.3725 5.97751C15.3 5.94626 15.4525 5.38751 15.3725 5.35251C14.8513 5.12626 13.7325 4.87751 13.6325 5.69876C13.5825 6.11001 13.685 6.51126 13.7275 6.91501C13.7275 6.71001 13.7275 6.50626 13.7263 6.30126C13.6563 7.72251 11.8238 5.89251 11.2588 6.32001C10.945 6.55751 10.9088 7.13876 10.6975 7.45626C10.2225 8.17251 9.52253 7.86376 8.89378 7.52876C8.97753 7.57126 8.80503 8.10501 8.89503 8.15251Z" fill="#1E88E5"/>
<path d="M4.09875 7.72629C4.92875 7.63629 5.1 6.79379 4.97 6.09628C4.78375 5.09504 3.3125 5.00503 3.22 4.02878C3.22 4.23378 3.22 4.43753 3.22125 4.64253C3.25125 4.11628 3.65875 3.74378 4.0875 3.50128C4.485 3.27753 4.70625 3.00628 4.75875 2.52503C4.8325 1.83753 4.6075 1.36003 3.97625 1.00378C4.0625 1.05253 3.88375 1.57628 3.97625 1.62878C4.29125 1.80628 4.72 2.13753 4.75875 2.52503V1.90003C4.61875 2.69378 4.20375 2.68253 3.6925 3.13878C3.3075 3.48253 3.2175 3.85878 3.2175 4.34128C3.2175 4.80253 3.32875 5.09753 3.71625 5.39628C4.25125 5.80753 4.855 6.06254 4.9825 6.80003C4.9825 6.59504 4.9825 6.39129 4.98125 6.18629C4.9575 6.70379 4.59875 7.04754 4.0975 7.10129C4.07125 7.10379 4.11625 7.72379 4.09875 7.72629Z" fill="#1E88E5"/>
<path d="M5.46625 10.025C6.12875 10.3087 7.085 9.66622 7.2675 9.02997C7.35875 8.71373 7.365 8.25748 7.3225 7.92998C7.2625 7.46623 6.875 7.16998 6.705 6.75248C6.56875 6.41748 6.64875 6.13123 6.8425 5.76998C7.155 5.18873 8.555 4.30748 8.7825 5.43623C8.7825 5.24248 8.78125 5.04748 8.78125 4.85373C8.77625 5.21123 8.56125 5.48873 8.18125 5.41498C7.81125 5.34373 7.65 5.00623 7.60125 4.66998C7.6025 4.84748 7.6025 5.02623 7.60375 5.20373C7.62375 3.68248 9.2725 3.11748 10.525 3.03748C10.5425 3.03623 10.5163 2.41248 10.525 2.41248C8.93 2.51373 7.59875 3.26123 7.59875 4.98248C7.59875 5.44248 7.72625 6.11248 8.34375 6.05248C8.84875 6.00373 8.79875 5.41498 8.78625 5.03998C8.76875 4.52123 8.4175 4.16373 7.85 4.30248C7.2 4.46248 6.7625 5.09748 6.63375 5.72123C6.565 6.05373 6.57375 6.41998 6.59 6.75873C6.6225 7.47998 7.21 7.88498 7.3225 8.55373C7.3225 8.34873 7.3225 8.14498 7.32125 7.93998C7.28375 8.47373 7.1075 8.86248 6.64 9.17373C6.3225 9.38498 5.8375 9.55748 5.465 9.39748C5.5375 9.42998 5.38625 9.99122 5.46625 10.025Z" fill="#FF5722"/>
</g>
<defs>
<linearGradient id="paint0_linear" x1="7.66321" y1="8.5929" x2="0.671459" y2="15.1475" gradientUnits="userSpaceOnUse">
<stop offset="0.004" stop-color="#8D6E63"/>
<stop offset="1" stop-color="#6D4C41"/>
</linearGradient>
<clipPath id="clip0">
<rect width="16" height="16" fill="white"/>
</clipPath>
</defs>
</svg>
