<svg width="16" height="18" viewBox="0 0 16 18" fill="none" xmlns="http://www.w3.org/2000/svg">
<path d="M13 12.125C12.6633 12.1249 12.3301 12.193 12.0204 12.3252C11.7108 12.4575 11.4311 12.6512 11.1984 12.8945L5.41719 9.64178C5.52918 9.22124 5.52918 8.77872 5.41719 8.35819L11.1984 5.10545C11.6194 5.54191 12.1851 5.80991 12.7895 5.85923C13.3939 5.90856 13.9955 5.73583 14.4817 5.3734C14.9679 5.01097 15.3052 4.48371 15.4306 3.8904C15.5559 3.29709 15.4606 2.67844 15.1626 2.15034C14.8645 1.62224 14.3841 1.22094 13.8114 1.02161C13.2387 0.822276 12.613 0.838593 12.0514 1.0675C11.4899 1.29641 11.0311 1.72221 10.761 2.26512C10.4908 2.80803 10.4279 3.43081 10.584 4.01678L4.80274 7.26951C4.45741 6.90945 4.01224 6.66094 3.52451 6.55596C3.03678 6.45098 2.52879 6.49432 2.0659 6.68042C1.60301 6.86652 1.20639 7.18686 0.927049 7.60022C0.647713 8.01359 0.498444 8.50108 0.498444 8.99998C0.498444 9.49888 0.647713 9.98637 0.927049 10.3997C1.20639 10.8131 1.60301 11.1334 2.0659 11.3195C2.52879 11.5056 3.03678 11.549 3.52451 11.444C4.01224 11.339 4.45741 11.0905 4.80274 10.7305L10.584 13.9832C10.4499 14.4878 10.4773 15.0218 10.6621 15.5101C10.847 15.9984 11.1801 16.4166 11.6147 16.7059C12.0493 16.9953 12.5636 17.1413 13.0855 17.1235C13.6073 17.1057 14.1105 16.925 14.5243 16.6066C14.9382 16.2883 15.242 15.8484 15.3932 15.3486C15.5443 14.8488 15.5352 14.3143 15.367 13.82C15.1989 13.3256 14.8802 12.8964 14.4557 12.5924C14.0312 12.2884 13.5221 12.1249 13 12.125Z" fill="#6D5DDE"/>
</svg>
